<svg xmlns="http://www.w3.org/2000/svg" viewBox="80 289 868 474">
<path fill="#000000" d="
M221.751831,696.218750
	C183.783936,673.198669 165.081146,639.573486 164.829742,595.731262
	C164.600388,555.733215 164.767578,515.732910 164.768204,475.733582
	C164.768356,466.273163 169.643173,461.392548 179.309662,461.366180
	C202.142365,461.303894 224.975296,461.299866 247.808121,461.313629
	C257.670593,461.319580 262.597687,466.172791 262.611694,476.051666
	C262.664398,513.217346 262.662048,550.383179 262.647827,587.548950
	C262.644867,595.287659 263.108948,602.936462 267.397308,609.697815
	C274.280914,620.551147 284.940521,623.946472 297.016907,624.107544
	C308.347992,624.258667 319.682617,624.149841 331.015686,624.150208
	C342.002716,624.150635 346.558044,628.666260 346.557312,639.549194
	C346.555969,660.048584 346.568970,680.547974 346.560272,701.047363
	C346.555481,712.363403 342.065582,717.031250 330.878662,716.780212
	C312.741943,716.373291 294.542511,716.507324 276.495911,714.949585
	C257.027527,713.269043 238.998581,706.151062 221.751831,696.218750
z"/>
<path fill="#000000" d="
M549.135254,447.999939
	C549.118408,415.178497 549.103088,382.857025 549.084167,350.535583
	C549.077942,339.876129 553.914062,335.005371 564.675659,334.994080
	C587.500488,334.970154 610.325317,334.986145 633.150146,335.005035
	C642.875061,335.013092 648.048401,340.114929 648.049194,349.762451
	C648.055664,430.232391 648.049438,510.702362 648.032776,591.172302
	C648.030884,600.501099 642.899170,605.590759 633.373962,605.605225
	C610.049500,605.640625 586.724854,605.628601 563.400391,605.578979
	C553.859680,605.558716 549.153076,600.705444 549.149170,590.949036
	C549.130127,543.466003 549.137390,495.983002 549.135254,447.999939
z"/>
<path fill="#000000" d="
M402.295715,711.509888
	C401.345184,708.360962 400.007904,705.514343 400.003357,702.665710
	C399.881744,626.687805 399.889465,550.709656 399.901306,474.731598
	C399.902527,466.890381 404.639526,461.515015 412.419708,461.445679
	C436.743835,461.229004 461.072174,461.199371 485.396118,461.412537
	C493.229889,461.481201 497.537994,467.099457 497.541992,476.039551
	C497.559753,515.861206 497.553314,555.682861 497.554382,595.504517
	C497.555298,630.660828 497.545624,665.817078 497.559906,700.973389
	C497.564484,712.241699 493.077576,716.798645 481.939819,716.790100
	C459.446320,716.772827 436.952515,716.712341 414.459534,716.817261
	C409.645172,716.839661 405.602570,715.639038 402.295715,711.509888
z"/>
<path fill="#000000" d="
M864.776733,553.000122
	C864.760864,602.466675 864.746155,651.433228 864.728943,700.399780
	C864.724670,712.442566 860.207520,716.835632 848.047424,716.816956
	C826.062500,716.783142 804.077454,716.825562 782.092468,716.805054
	C771.881531,716.795532 767.066956,711.984985 767.067200,701.847534
	C767.069092,626.565552 767.075500,551.283569 767.088318,476.001556
	C767.089966,466.427856 771.928162,461.383026 781.397461,461.349823
	C804.381348,461.269226 827.365662,461.253998 850.349670,461.302551
	C859.600525,461.322083 864.734192,466.626709 864.749207,476.052338
	C864.789795,501.534882 864.771790,527.017517 864.776733,553.000122
z"/>
<path fill="#000000" d="
M549.051758,660.000000
	C549.043091,652.167786 548.992310,644.835266 549.035339,637.503357
	C549.090271,628.136719 553.999512,623.298035 563.772949,623.284363
	C605.433350,623.226135 647.093933,623.247192 688.754456,623.248413
	C703.252319,623.248840 717.750305,623.243713 732.247986,623.301941
	C741.541626,623.339294 746.769348,628.677307 746.754700,637.895142
	C746.720581,659.391785 746.717346,680.888367 746.688416,702.385010
	C746.675720,711.824951 741.654785,716.785889 732.117737,716.788513
	C675.792603,716.803894 619.467529,716.816650 563.142395,716.821045
	C554.171509,716.821716 549.151367,711.979919 549.087830,702.994263
	C548.987610,688.830139 549.054932,674.664795 549.051758,660.000000
z"/>
<path fill="#000000" d="
M268.000000,433.904846
	C238.339508,433.893951 209.179016,433.880737 180.018524,433.875946
	C169.501144,433.874207 164.813751,429.221741 164.803925,418.689423
	C164.782608,395.860992 164.778442,373.032532 164.768173,350.204102
	C164.763702,340.292603 169.536728,335.328033 179.342575,335.323944
	C230.498352,335.302612 281.654114,335.312592 332.809906,335.356018
	C341.533447,335.363434 346.546814,340.335144 346.562286,348.999329
	C346.604218,372.493988 346.591095,395.988892 346.518890,419.483459
	C346.489563,429.030609 341.555939,433.858093 331.986938,433.873596
	C310.824646,433.907928 289.662323,433.897827 268.000000,433.904846
z"/>
<path fill="#000000" d="
M494.468872,429.395660
	C490.620331,431.070496 487.040863,433.629761 483.422729,433.685699
	C460.098907,434.046265 436.766602,433.886841 413.437195,433.837891
	C405.235840,433.820679 399.968384,428.609497 399.950562,420.451324
	C399.898102,396.455322 399.892700,372.459137 399.944702,348.463135
	C399.961487,340.711517 404.931793,335.473083 412.687042,335.425964
	C436.682251,335.280090 460.679077,335.265015 484.674500,335.370880
	C492.473480,335.405273 497.512512,340.480743 497.546356,348.326172
	C497.650574,372.487976 497.647736,396.651489 497.416351,420.811768
	C497.389771,423.590363 495.660156,426.352600 494.468872,429.395660
z"/>
<path fill="#000000" d="
M774.754517,336.460266
	C777.568298,335.962738 780.026306,335.369385 782.486328,335.360870
	C804.815308,335.283478 827.144653,335.304535 849.473877,335.304626
	C859.909912,335.304657 864.680542,340.118408 864.685974,350.649994
	C864.697571,373.145874 864.716492,395.641754 864.702759,418.137634
	C864.696045,429.104553 859.862427,433.882477 848.829285,433.887146
	C826.500000,433.896576 804.170776,433.895447 781.841492,433.888367
	C771.971619,433.885254 767.098877,429.049561 767.091980,419.202789
	C767.075562,395.873749 767.115417,372.544617 767.065918,349.215668
	C767.053833,343.517365 769.233154,339.242615 774.754517,336.460266
z"/>
</svg>
